<svg xmlns="http://www.w3.org/2000/svg" viewBox="0 0 1000 220" width="1000" height="220" xmlns:c2pa="http://c2pa.org/manifest"><metadata><c2pa:manifest>AAAWgmp1bWIAAAAeanVtZGMycGEAEQAQgAAAqgA4m3EDYzJwYQAAABZcanVtYgAAAEdqdW1kYzJtYQARABCAAACqADibcQN1cm46YzJwYTozNGVjZTk0NC05MDc1LTRhNWUtYTk5OC05NTg3YTQ5NjBlZGUAAAADl2p1bWIAAAApanVtZGMyYXMAEQAQgAAAqgA4m3EDYzJwYS5hc3NlcnRpb25zAAAAALxqdW1iAAAARGp1bWRjYm9yABEAEIAAAKoAOJtxE2MycGEuaW5ncmVkaWVudC52MwAAAAAYYzJzaKLpTUPItmAWALEmN/nMTOAAAABwY2JvcqNpZGM6Zm9ybWF0bWltYWdlL3N2Zyt4bWxqaW5zdGFuY2VJRHgseG1wOmlpZDowOTRjZjY3Ni1lOTY1LTQzN2MtYjBlOC02ZmYzY2FhZDUyYjlscmVsYXRpb25zaGlwaHBhcmVudE9mAAAB4mp1bWIAAABBanVtZGNib3IAEQAQgAAAqgA4m3ETYzJwYS5hY3Rpb25zLnYyAAAAABhjMnNoNIHe2u880lHnes5GQofgHwAAAZljYm9yomdhY3Rpb25zgqJmYWN0aW9ua2MycGEub3BlbmVkanBhcmFtZXRlcnOha2luZ3JlZGllbnRzgaJjdXJseC1zZWxmI2p1bWJmPWMycGEuYXNzZXJ0aW9ucy9jMnBhLmluZ3JlZGllbnQudjNkaGFzaFggWynBJmAZPHjge+sGnjLYYmAJpL+j6bQKeJd9jgr+R3ykZmFjdGlvbngdY29tLmFudGhyb3BpYy5jbGF1ZGUucHJvdmlkZWRqcGFyYW1ldGVyc6F4H2NvbS5hbnRocm9waWMub3JpZ2luLWNvbmZpZGVuY2VndW5rbm93bmtkZXNjcmlwdGlvbnhmQ2xhdWRlIHByb3ZpZGVkIHRoaXMgZmlsZSBhdCB0aGUgcmVxdWVzdCBvZiBhIHVzZXIgYW5kIG1heSBoYXZlIGNyZWF0ZWQgb3IgbW9kaWZpZWQgdGhlIGZpbGUgY29udGVudHMubXNvZnR3YXJlQWdlbnShZG5hbWVmQ2xhdWRlcmFsbEFjdGlvbnNJbmNsdWRlZPUAAADIanVtYgAAAEBqdW1kY2JvcgARABCAAACqADibcRNjMnBhLmhhc2guZGF0YQAAAAAYYzJzaNx4CyDOPYBuHZPs/qtNQjQAAACAY2JvcqVjYWxnZnNoYTI1NmNwYWRNAAAAAAAAAAAAAAAAAGRoYXNoWCCNRMG7BnRIj9Hq227OymcarB1oIgWSisuxJDWIPyP1dmRuYW1lbmp1bWJmIG1hbmlmZXN0amV4Y2x1c2lvbnOBomVzdGFydBiYZmxlbmd0aBkeBAAAAj5qdW1iAAAAJ2p1bWRjMmNsABEAEIAAAKoAOJtxA2MycGEuY2xhaW0udjIAAAACD2Nib3KlY2FsZ2ZzaGEyNTZpc2lnbmF0dXJleE1zZWxmI2p1bWJmPS9jMnBhL3VybjpjMnBhOjM0ZWNlOTQ0LTkwNzUtNGE1ZS1hOTk4LTk1ODdhNDk2MGVkZS9jMnBhLnNpZ25hdHVyZWppbnN0YW5jZUlEeCx4bXA6aWlkOjUxNDNiM2Y3LTliNmQtNDBjNy05N2RjLWNiZDM1M2ViM2VlZnJjcmVhdGVkX2Fzc2VydGlvbnODomN1cmx4LXNlbGYjanVtYmY9YzJwYS5hc3NlcnRpb25zL2MycGEuaW5ncmVkaWVudC52M2RoYXNoWCBbKcEmYBk8eOB76waeMthiYAmkv6PptAp4l32OCv5HfKJjdXJseCpzZWxmI2p1bWJmPWMycGEuYXNzZXJ0aW9ucy9jMnBhLmFjdGlvbnMudjJkaGFzaFggZlDYpvcgWnt5smH57hNiVcz/ad50vZE75ptz0V6r2M2iY3VybHgpc2VsZiNqdW1iZj1jMnBhLmFzc2VydGlvbnMvYzJwYS5oYXNoLmRhdGFkaGFzaFggp9MN28jiWf72+rsX8Drb2Nrr5gxYWqmHk0Np2Xke3gB0Y2xhaW1fZ2VuZXJhdG9yX2luZm+jZG5hbWVvQW50aHJvcGljIEZpbGVzZ3ZlcnNpb25lMS4wLjBrc3BlY1ZlcnNpb25lMi40LjAAABA4anVtYgAAAChqdW1kYzJjcwARABCAAACqADibcQNjMnBhLnNpZ25hdHVyZQAAABAIY2JvctKEWQISogEmGCFZAgowggIGMIIBjaADAgECAhRA5aAK7sI50L64g/oGQgU9Z1UTADAKBggqhkjOPQQDAzBJMRcwFQYDVQQKEw5BbnRocm9waWMsIFBCQzEuMCwGA1UEAxMlQW50aHJvcGljIENvbnRlbnQgQ3JlZGVudGlhbHMgUm9vdCBDQTAeFw0yNjA4MDcxODQzNTZaFw0yODA4MDYxOTQzNTZaMEQxFzAVBgNVBAoTDkFudGhyb3BpYywgUEJDMSkwJwYDVQQDEyBBbnRocm9waWMgQ2xhdWRlIENvbnRlbnQgU2lnbmluZzBZMBMGByqGSM49AgEGCCqGSM49AwEHA0IABJh6CmvLUBgFFNU0vUKlOVtE6djd17L5SuwX0LemFisBM3dkd/3cyjxFA3Qo5S46fX0/ihY0VZ7mfb9KF703t5OjWDBWMA4GA1UdDwEB/wQEAwIHgDAVBgNVHSUEDjAMBgorBgEEAYPoXgIBMAwGA1UdEwEB/wQCMAAwHwYDVR0jBBgwFoAUzlHiBIFOZFsj+OPEz5o+nMHXXMIwCgYIKoZIzj0EAwMDZwAwZAIwMXMdFJ4BetLLVY7ORuE9noqbbAZOZn/aArXyTwFAZfKrPzxF2vPoJNf1+UCdg1XGAjBwX1zd9WGqYkqmL5SFqw1QySjr1zJfpJM9+1rdDwSPLMOPOjKuiXjoU/pUUeG9RwmhY3BhZFkNngAAAAAAAAAAAAAAAAAAAAAAAAAAAAAAAAAAAAAAAAAAAAAAAAAAAAAAAAAAAAAAAAAAAAAAAAAAAAAAAAAAAAAAAAAAAAAAAAAAAAAAAAAAAAAAAAAAAAAAAAAAAAAAAAAAAAAAAAAAAAAAAAAAAAAAAAAAAAAAAAAAAAAAAAAAAAAAAAAAAAAAAAAAAAAAAAAAAAAAAAAAAAAAAAAAAAAAAAAAAAAAAAAAAAAAAAAAAAAAAAAAAAAAAAAAAAAAAAAAAAAAAAAAAAAAAAAAAAAAAAAAAAAAAAAAAAAAAAAAAAAAAAAAAAAAAAAAAAAAAAAAAAAAAAAAAAAAAAAAAAAAAAAAAAAAAAAAAAAAAAAAAAAAAAAAAAAAAAAAAAAAAAAAAAAAAAAAAAAAAAAAAAAAAAAAAAAAAAAAAAAAAAAAAAAAAAAAAAAAAAAAAAAAAAAAAAAAAAAAAAAAAAAAAAAAAAAAAAAAAAAAAAAAAAAAAAAAAAAAAAAAAAAAAAAAAAAAAAAAAAAAAAAAAAAAAAAAAAAAAAAAAAAAAAAAAAAAAAAAAAAAAAAAAAAAAAAAAAAAAAAAAAAAAAAAAAAAAAAAAAAAAAAAAAAAAAAAAAAAAAAAAAAAAAAAAAAAAAAAAAAAAAAAAAAAAAAAAAAAAAAAAAAAAAAAAAAAAAAAAAAAAAAAAAAAAAAAAAAAAAAAAAAAAAAAAAAAAAAAAAAAAAAAAAAAAAAAAAAAAAAAAAAAAAAAAAAAAAAAAAAAAAAAAAAAAAAAAAAAAAAAAAAAAAAAAAAAAAAAAAAAAAAAAAAAAAAAAAAAAAAAAAAAAAAAAAAAAAAAAAAAAAAAAAAAAAAAAAAAAAAAAAAAAAAAAAAAAAAAAAAAAAAAAAAAAAAAAAAAAAAAAAAAAAAAAAAAAAAAAAAAAAAAAAAAAAAAAAAAAAAAAAAAAAAAAAAAAAAAAAAAAAAAAAAAAAAAAAAAAAAAAAAAAAAAAAAAAAAAAAAAAAAAAAAAAAAAAAAAAAAAAAAAAAAAAAAAAAAAAAAAAAAAAAAAAAAAAAAAAAAAAAAAAAAAAAAAAAAAAAAAAAAAAAAAAAAAAAAAAAAAAAAAAAAAAAAAAAAAAAAAAAAAAAAAAAAAAAAAAAAAAAAAAAAAAAAAAAAAAAAAAAAAAAAAAAAAAAAAAAAAAAAAAAAAAAAAAAAAAAAAAAAAAAAAAAAAAAAAAAAAAAAAAAAAAAAAAAAAAAAAAAAAAAAAAAAAAAAAAAAAAAAAAAAAAAAAAAAAAAAAAAAAAAAAAAAAAAAAAAAAAAAAAAAAAAAAAAAAAAAAAAAAAAAAAAAAAAAAAAAAAAAAAAAAAAAAAAAAAAAAAAAAAAAAAAAAAAAAAAAAAAAAAAAAAAAAAAAAAAAAAAAAAAAAAAAAAAAAAAAAAAAAAAAAAAAAAAAAAAAAAAAAAAAAAAAAAAAAAAAAAAAAAAAAAAAAAAAAAAAAAAAAAAAAAAAAAAAAAAAAAAAAAAAAAAAAAAAAAAAAAAAAAAAAAAAAAAAAAAAAAAAAAAAAAAAAAAAAAAAAAAAAAAAAAAAAAAAAAAAAAAAAAAAAAAAAAAAAAAAAAAAAAAAAAAAAAAAAAAAAAAAAAAAAAAAAAAAAAAAAAAAAAAAAAAAAAAAAAAAAAAAAAAAAAAAAAAAAAAAAAAAAAAAAAAAAAAAAAAAAAAAAAAAAAAAAAAAAAAAAAAAAAAAAAAAAAAAAAAAAAAAAAAAAAAAAAAAAAAAAAAAAAAAAAAAAAAAAAAAAAAAAAAAAAAAAAAAAAAAAAAAAAAAAAAAAAAAAAAAAAAAAAAAAAAAAAAAAAAAAAAAAAAAAAAAAAAAAAAAAAAAAAAAAAAAAAAAAAAAAAAAAAAAAAAAAAAAAAAAAAAAAAAAAAAAAAAAAAAAAAAAAAAAAAAAAAAAAAAAAAAAAAAAAAAAAAAAAAAAAAAAAAAAAAAAAAAAAAAAAAAAAAAAAAAAAAAAAAAAAAAAAAAAAAAAAAAAAAAAAAAAAAAAAAAAAAAAAAAAAAAAAAAAAAAAAAAAAAAAAAAAAAAAAAAAAAAAAAAAAAAAAAAAAAAAAAAAAAAAAAAAAAAAAAAAAAAAAAAAAAAAAAAAAAAAAAAAAAAAAAAAAAAAAAAAAAAAAAAAAAAAAAAAAAAAAAAAAAAAAAAAAAAAAAAAAAAAAAAAAAAAAAAAAAAAAAAAAAAAAAAAAAAAAAAAAAAAAAAAAAAAAAAAAAAAAAAAAAAAAAAAAAAAAAAAAAAAAAAAAAAAAAAAAAAAAAAAAAAAAAAAAAAAAAAAAAAAAAAAAAAAAAAAAAAAAAAAAAAAAAAAAAAAAAAAAAAAAAAAAAAAAAAAAAAAAAAAAAAAAAAAAAAAAAAAAAAAAAAAAAAAAAAAAAAAAAAAAAAAAAAAAAAAAAAAAAAAAAAAAAAAAAAAAAAAAAAAAAAAAAAAAAAAAAAAAAAAAAAAAAAAAAAAAAAAAAAAAAAAAAAAAAAAAAAAAAAAAAAAAAAAAAAAAAAAAAAAAAAAAAAAAAAAAAAAAAAAAAAAAAAAAAAAAAAAAAAAAAAAAAAAAAAAAAAAAAAAAAAAAAAAAAAAAAAAAAAAAAAAAAAAAAAAAAAAAAAAAAAAAAAAAAAAAAAAAAAAAAAAAAAAAAAAAAAAAAAAAAAAAAAAAAAAAAAAAAAAAAAAAAAAAAAAAAAAAAAAAAAAAAAAAAAAAAAAAAAAAAAAAAAAAAAAAAAAAAAAAAAAAAAAAAAAAAAAAAAAAAAAAAAAAAAAAAAAAAAAAAAAAAAAAAAAAAAAAAAAAAAAAAAAAAAAAAAAAAAAAAAAAAAAAAAAAAAAAAAAAAAAAAAAAAAAAAAAAAAAAAAAAAAAAAAAAAAAAAAAAAAAAAAAAAAAAAAAAAAAAAAAAAAAAAAAAAAAAAAAAAAAAAAAAAAAAAAAAAAAAAAAAAAAAAAAAAAAAAAAAAAAAAAAAAAAAAAAAAAAAAAAAAAAAAAAAAAAAAAAAAAAAAAAAAAAAAAAAAAAAAAAAAAAAAAAAAAAAAAAAAAAAAAAAAAAAAAAAAAAAAAAAAAAAAAAAAAAAAAAAAAAAAAAAAAAAAAAAAAAAAAAAAAAAAAAAAAAAAAAAAAAAAAAAAAAAAAAAAAAAAAAAAAAAAAAAAAAAAAAAAAAAAAAAAAAAAAAAAAAAAAAAAAAAAAAAAAAAAAAAAAAAAAAAAAAAAAAAAAAAAAAAAAAAAAAAAAAAAAAAAAAAAAAAAAAAAAAAAAAAAAAAAAAAAAAAAAAAAAAAAAAAAAAAAAAAAAAAAAAAAAAAAAAAAAAAAAAAAAAAAAAAAAAAAAAAAAAAAAAAAAAAAAAAAAAAAAAAAAAAAAAAAAAAAAAAAAAAAAAAAAAAAAAAAAAAAAAAAAAAAAAAAAAAAAAAAAAAAAAAAAAAAAAAAAAAAAAAAAAAAAAAAAAAAAAAAAAAAAAAAAAAAAAAAAAAAAAAAAAAAAAAAAAAAAAAAAAAAAAAAAAAAAAAAAAAAAAAAAAAAAAAAAAAAAAAAAAAAAAAAAAAAAAAAAAAAAAAAAAAAAAAAAAAAAAAAAAAAAAAAAAAAAAAAAAAAAAAAAAAAAAAAAAAAAAAAAAAAAAAAAAAAAAAAAAAAAAAAAAAAAAAAAAAAAAAAAAAAAAAAAAAAAAAAAAAAAAAAAAAAAAAAAAAAAAAAAAAAAAAAAAAAAAAAAAAAAAAAAAAAAAAAAAAAAAAAAAAAAAAAAAAAAAAAAAAAAAAAAAAAAAAAAAAAAAAAAAAAAAAAAAAAAAAAAAAAAAAAAAAAAAAAAAAAAAAAAAAAAAAAAAAAAAAAAAAAAAAAAAAAAAAAAAAAAAAAAAAAAAAAAAAAAAAAAAAAAAAAAAAAAAAAAAAAAAAAAAAAAAAAAAAAAAAAAAAAAAAAAAAAAAAAAAAAAAAAAAAAAAAAAAAAAAAAAAAAAAAAAAAAAAAAAAAAAAAAAAAAAAAAAAAAAAAAAAAAAAAAAAAAAAAAAAAAAAAAAAAAAAAAAAAAAAAAAAAAAAAAAAAAAAAAAAAAAAAAAAAAAAAAAAAAAAAAAAAAAAAAAAAAAAAAAAAAAAAAAAAAAAAAAAAAAAAAAAAAAAAAAAAAAAAAAAAAAAAAAAAAAAAAAAAAAAAAAAAAAAAAAAAAAAAAAAAAAAAAAAAAAAAAAAAAAAAAAAAAAAAAAAAAAAAAAAAAAAAAAAAAAAAAAAAAAAAAAAAAAAAAAAAAAAAAAAAAAAAAAAAAAAAAAAAAAAAAAAAAAAAAAAAAAAAAAAAAAAAAAAAAAAAAAAAAAAAAAAAAAAAAAAAAAAAAAAAAAAAAAAAAAAAAAAAAAAAAAAAAAAAAAAAAAAAAAAAAAAAAAAAAAAAAAAAAAAAAAAAAAAAAAAAAAAAAAAAAAAAAAAAAAAAAAAAAAAAAAAAAAAAAAAAAAAAAAAAAAAAAAAAAAAAAAAAAAAAAAAAAAAAAAAAAAAAAAAAAAAAAAAAAAAAAAAAAAAAAAAAAAAAAAAAAAAAAAAAAAAAAAAAAAAAAAAAAAAAAAAAAAAAAAAAAAAAAAAAAAAAAAAAAAAAAAAAAAAAAAAAAAAAAAAAAAAAAAAAAAAAAAAAAAAAAAAAAAAAAPZYQJdsxIgJvGHKINHKeOUCMRfdWvL2TnVqHDXyDDWFz4AB9aLp6Icl7JH7NuhmWaqEDJXyszB0tqVVa0r61rD/pdg=</c2pa:manifest></metadata>
<defs><linearGradient id="bg" x1="0" y1="0" x2="1" y2="1"><stop offset="0" stop-color="#0b1220"/><stop offset=".5" stop-color="#0b2a44"/><stop offset="1" stop-color="#111827"/></linearGradient>
<radialGradient id="glow"><stop offset="0" stop-color="#0e75b6" stop-opacity=".55"/><stop offset="1" stop-color="#0e75b6" stop-opacity="0"/></radialGradient></defs>
<rect width="1000" height="220" fill="url(#bg)"/>
<circle cx="559" cy="92" r="2" fill="#7dd3fc"><animate attributeName="opacity" values="0.15;1;0.15" dur="4s" repeatCount="indefinite"/><animateTransform attributeName="transform" type="translate" values="0 0;4 2;0 0" dur="8s" repeatCount="indefinite"/></circle>
<circle cx="94" cy="19" r="2.5" fill="#7dd3fc"><animate attributeName="opacity" values="0.15;1;0.15" dur="9s" repeatCount="indefinite"/><animateTransform attributeName="transform" type="translate" values="0 0;30 -4;0 0" dur="18s" repeatCount="indefinite"/></circle>
<circle cx="796" cy="80" r="2.5" fill="#7dd3fc"><animate attributeName="opacity" values="0.15;1;0.15" dur="4s" repeatCount="indefinite"/><animateTransform attributeName="transform" type="translate" values="0 0;-13 21;0 0" dur="8s" repeatCount="indefinite"/></circle>
<circle cx="898" cy="26" r="2.5" fill="#7dd3fc"><animate attributeName="opacity" values="0.15;1;0.15" dur="4s" repeatCount="indefinite"/><animateTransform attributeName="transform" type="translate" values="0 0;-18 4;0 0" dur="8s" repeatCount="indefinite"/></circle>
<circle cx="353" cy="185" r="1.5" fill="#7dd3fc"><animate attributeName="opacity" values="0.15;1;0.15" dur="11s" repeatCount="indefinite"/><animateTransform attributeName="transform" type="translate" values="0 0;-21 3;0 0" dur="22s" repeatCount="indefinite"/></circle>
<circle cx="932" cy="195" r="2.5" fill="#7dd3fc"><animate attributeName="opacity" values="0.15;1;0.15" dur="11s" repeatCount="indefinite"/><animateTransform attributeName="transform" type="translate" values="0 0;34 30;0 0" dur="22s" repeatCount="indefinite"/></circle>
<circle cx="715" cy="32" r="1.5" fill="#7dd3fc"><animate attributeName="opacity" values="0.15;1;0.15" dur="11s" repeatCount="indefinite"/><animateTransform attributeName="transform" type="translate" values="0 0;27 5;0 0" dur="22s" repeatCount="indefinite"/></circle>
<circle cx="307" cy="196" r="1.5" fill="#7dd3fc"><animate attributeName="opacity" values="0.15;1;0.15" dur="12s" repeatCount="indefinite"/><animateTransform attributeName="transform" type="translate" values="0 0;25 23;0 0" dur="24s" repeatCount="indefinite"/></circle>
<circle cx="938" cy="153" r="2" fill="#7dd3fc"><animate attributeName="opacity" values="0.15;1;0.15" dur="8s" repeatCount="indefinite"/><animateTransform attributeName="transform" type="translate" values="0 0;8 24;0 0" dur="16s" repeatCount="indefinite"/></circle>
<circle cx="900" cy="166" r="1.5" fill="#7dd3fc"><animate attributeName="opacity" values="0.15;1;0.15" dur="8s" repeatCount="indefinite"/><animateTransform attributeName="transform" type="translate" values="0 0;-22 4;0 0" dur="16s" repeatCount="indefinite"/></circle>
<circle cx="546" cy="79" r="2.5" fill="#7dd3fc"><animate attributeName="opacity" values="0.15;1;0.15" dur="7s" repeatCount="indefinite"/><animateTransform attributeName="transform" type="translate" values="0 0;12 4;0 0" dur="14s" repeatCount="indefinite"/></circle>
<circle cx="127" cy="138" r="1" fill="#7dd3fc"><animate attributeName="opacity" values="0.15;1;0.15" dur="10s" repeatCount="indefinite"/><animateTransform attributeName="transform" type="translate" values="0 0;-37 4;0 0" dur="20s" repeatCount="indefinite"/></circle>
<circle cx="55" cy="142" r="2.5" fill="#7dd3fc"><animate attributeName="opacity" values="0.15;1;0.15" dur="12s" repeatCount="indefinite"/><animateTransform attributeName="transform" type="translate" values="0 0;32 -23;0 0" dur="24s" repeatCount="indefinite"/></circle>
<circle cx="512" cy="33" r="1.5" fill="#7dd3fc"><animate attributeName="opacity" values="0.15;1;0.15" dur="5s" repeatCount="indefinite"/><animateTransform attributeName="transform" type="translate" values="0 0;28 -1;0 0" dur="10s" repeatCount="indefinite"/></circle>
<circle cx="433" cy="113" r="2" fill="#7dd3fc"><animate attributeName="opacity" values="0.15;1;0.15" dur="7s" repeatCount="indefinite"/><animateTransform attributeName="transform" type="translate" values="0 0;20 1;0 0" dur="14s" repeatCount="indefinite"/></circle>
<circle cx="140" cy="96" r="2.5" fill="#7dd3fc"><animate attributeName="opacity" values="0.15;1;0.15" dur="11s" repeatCount="indefinite"/><animateTransform attributeName="transform" type="translate" values="0 0;27 -10;0 0" dur="22s" repeatCount="indefinite"/></circle>
<circle cx="121" cy="59" r="2.5" fill="#7dd3fc"><animate attributeName="opacity" values="0.15;1;0.15" dur="4s" repeatCount="indefinite"/><animateTransform attributeName="transform" type="translate" values="0 0;-7 -22;0 0" dur="8s" repeatCount="indefinite"/></circle>
<circle cx="728" cy="209" r="1" fill="#7dd3fc"><animate attributeName="opacity" values="0.15;1;0.15" dur="4s" repeatCount="indefinite"/><animateTransform attributeName="transform" type="translate" values="0 0;-16 -21;0 0" dur="8s" repeatCount="indefinite"/></circle>
<circle cx="242" cy="13" r="2" fill="#7dd3fc"><animate attributeName="opacity" values="0.15;1;0.15" dur="9s" repeatCount="indefinite"/><animateTransform attributeName="transform" type="translate" values="0 0;5 -15;0 0" dur="18s" repeatCount="indefinite"/></circle>
<circle cx="644" cy="137" r="1" fill="#7dd3fc"><animate attributeName="opacity" values="0.15;1;0.15" dur="11s" repeatCount="indefinite"/><animateTransform attributeName="transform" type="translate" values="0 0;34 -23;0 0" dur="22s" repeatCount="indefinite"/></circle>
<circle cx="882" cy="140" r="2" fill="#7dd3fc"><animate attributeName="opacity" values="0.15;1;0.15" dur="7s" repeatCount="indefinite"/><animateTransform attributeName="transform" type="translate" values="0 0;27 26;0 0" dur="14s" repeatCount="indefinite"/></circle>
<circle cx="457" cy="15" r="2.5" fill="#7dd3fc"><animate attributeName="opacity" values="0.15;1;0.15" dur="10s" repeatCount="indefinite"/><animateTransform attributeName="transform" type="translate" values="0 0;27 9;0 0" dur="20s" repeatCount="indefinite"/></circle>
<circle cx="173" cy="147" r="1.5" fill="#7dd3fc"><animate attributeName="opacity" values="0.15;1;0.15" dur="12s" repeatCount="indefinite"/><animateTransform attributeName="transform" type="translate" values="0 0;-13 3;0 0" dur="24s" repeatCount="indefinite"/></circle>
<circle cx="231" cy="148" r="1.5" fill="#7dd3fc"><animate attributeName="opacity" values="0.15;1;0.15" dur="7s" repeatCount="indefinite"/><animateTransform attributeName="transform" type="translate" values="0 0;40 21;0 0" dur="14s" repeatCount="indefinite"/></circle>
<circle cx="365" cy="56" r="2" fill="#7dd3fc"><animate attributeName="opacity" values="0.15;1;0.15" dur="9s" repeatCount="indefinite"/><animateTransform attributeName="transform" type="translate" values="0 0;-16 -17;0 0" dur="18s" repeatCount="indefinite"/></circle>
<circle cx="806" cy="59" r="1" fill="#7dd3fc"><animate attributeName="opacity" values="0.15;1;0.15" dur="6s" repeatCount="indefinite"/><animateTransform attributeName="transform" type="translate" values="0 0;-10 -22;0 0" dur="12s" repeatCount="indefinite"/></circle>
<circle cx="754" cy="32" r="2" fill="#7dd3fc"><animate attributeName="opacity" values="0.15;1;0.15" dur="10s" repeatCount="indefinite"/><animateTransform attributeName="transform" type="translate" values="0 0;-28 -3;0 0" dur="20s" repeatCount="indefinite"/></circle>
<circle cx="862" cy="117" r="1.5" fill="#7dd3fc"><animate attributeName="opacity" values="0.15;1;0.15" dur="7s" repeatCount="indefinite"/><animateTransform attributeName="transform" type="translate" values="0 0;11 10;0 0" dur="14s" repeatCount="indefinite"/></circle>
<clipPath id="c18"><rect x="258.2" y="69" height="39" width="0"><animate attributeName="width" calcMode="discrete" values="0.0;15.6;31.2;46.8;62.4;78.0;93.6;109.2;124.8;140.4;156.0;171.6;187.2;202.8;218.4;234.0;249.6;265.2;280.8;296.4;312.0;327.6;343.2;358.8;374.4;390.0;405.6;421.2;436.8;452.4;468.0;483.6;468.0;452.4;436.8;421.2;405.6;390.0;374.4;358.8;343.2;327.6;312.0;296.4;280.8;265.2;249.6;234.0;218.4;202.8;187.2;171.6;156.0;140.4;124.8;109.2;93.6;78.0;62.4;46.8;31.2;15.6;0.0;0.0" keyTimes="0.0000;0.0358;0.0416;0.0474;0.0532;0.0590;0.0648;0.0706;0.0765;0.0823;0.0881;0.0939;0.0997;0.1055;0.1113;0.1171;0.1229;0.1287;0.1345;0.1403;0.1461;0.1519;0.1577;0.1635;0.1694;0.1752;0.1810;0.1868;0.1926;0.1984;0.2042;0.2100;0.3726;0.3752;0.3777;0.3803;0.3829;0.3855;0.3881;0.3906;0.3932;0.3958;0.3984;0.4010;0.4035;0.4061;0.4087;0.4113;0.4139;0.4165;0.4190;0.4216;0.4242;0.4268;0.4294;0.4319;0.4345;0.4371;0.4397;0.4423;0.4448;0.4474;0.4500;1.0000" dur="10s" repeatCount="indefinite"/></rect></clipPath><text x="258.2" y="95" font-family="Consolas,'Courier New',monospace" font-size="26" font-weight="400" fill="#e2e8f0" textLength="483.6" lengthAdjust="spacingAndGlyphs" clip-path="url(#c18)">Thanks for visiting my profile!</text><rect x="258.2" y="72.9" width="4.1" height="27.3" fill="#7dd3fc" opacity="0"><animate attributeName="x" calcMode="discrete" values="258.2;273.8;289.4;305.0;320.6;336.2;351.8;367.4;383.0;398.6;414.2;429.8;445.4;461.0;476.6;492.2;507.8;523.4;539.0;554.6;570.2;585.8;601.4;617.0;632.6;648.2;663.8;679.4;695.0;710.6;726.2;741.8;726.2;710.6;695.0;679.4;663.8;648.2;632.6;617.0;601.4;585.8;570.2;554.6;539.0;523.4;507.8;492.2;476.6;461.0;445.4;429.8;414.2;398.6;383.0;367.4;351.8;336.2;320.6;305.0;289.4;273.8;258.2;258.2" keyTimes="0.0000;0.0358;0.0416;0.0474;0.0532;0.0590;0.0648;0.0706;0.0765;0.0823;0.0881;0.0939;0.0997;0.1055;0.1113;0.1171;0.1229;0.1287;0.1345;0.1403;0.1461;0.1519;0.1577;0.1635;0.1694;0.1752;0.1810;0.1868;0.1926;0.1984;0.2042;0.2100;0.3726;0.3752;0.3777;0.3803;0.3829;0.3855;0.3881;0.3906;0.3932;0.3958;0.3984;0.4010;0.4035;0.4061;0.4087;0.4113;0.4139;0.4165;0.4190;0.4216;0.4242;0.4268;0.4294;0.4319;0.4345;0.4371;0.4397;0.4423;0.4448;0.4474;0.4500;1.0000" dur="10s" repeatCount="indefinite"/><animate attributeName="opacity" calcMode="discrete" values="0;1;0;0" keyTimes="0.0000;0.0300;0.4500;1.0000" dur="10s" repeatCount="indefinite"/><animate attributeName="fill-opacity" values="1;0;1" dur="0.9s" repeatCount="indefinite"/></rect>
<clipPath id="c19"><rect x="258.2" y="69" height="39" width="0"><animate attributeName="width" calcMode="discrete" values="0.0;15.6;31.2;46.8;62.4;78.0;93.6;109.2;124.8;140.4;156.0;171.6;187.2;202.8;218.4;234.0;249.6;265.2;280.8;296.4;312.0;327.6;343.2;358.8;374.4;390.0;405.6;421.2;436.8;452.4;468.0;483.6;468.0;452.4;436.8;421.2;405.6;390.0;374.4;358.8;343.2;327.6;312.0;296.4;280.8;265.2;249.6;234.0;218.4;202.8;187.2;171.6;156.0;140.4;124.8;109.2;93.6;78.0;62.4;46.8;31.2;15.6;0.0;0.0" keyTimes="0.0000;0.5358;0.5416;0.5474;0.5532;0.5590;0.5648;0.5706;0.5765;0.5823;0.5881;0.5939;0.5997;0.6055;0.6113;0.6171;0.6229;0.6287;0.6345;0.6403;0.6461;0.6519;0.6577;0.6635;0.6694;0.6752;0.6810;0.6868;0.6926;0.6984;0.7042;0.7100;0.8726;0.8752;0.8777;0.8803;0.8829;0.8855;0.8881;0.8906;0.8932;0.8958;0.8984;0.9010;0.9035;0.9061;0.9087;0.9113;0.9139;0.9165;0.9190;0.9216;0.9242;0.9268;0.9294;0.9319;0.9345;0.9371;0.9397;0.9423;0.9448;0.9474;0.9500;1.0000" dur="10s" repeatCount="indefinite"/></rect></clipPath><text x="258.2" y="95" font-family="Consolas,'Courier New',monospace" font-size="26" font-weight="400" fill="#7dd3fc" textLength="483.6" lengthAdjust="spacingAndGlyphs" clip-path="url(#c19)">Building. Creating. Innovating.</text><rect x="258.2" y="72.9" width="4.1" height="27.3" fill="#7dd3fc" opacity="0"><animate attributeName="x" calcMode="discrete" values="258.2;273.8;289.4;305.0;320.6;336.2;351.8;367.4;383.0;398.6;414.2;429.8;445.4;461.0;476.6;492.2;507.8;523.4;539.0;554.6;570.2;585.8;601.4;617.0;632.6;648.2;663.8;679.4;695.0;710.6;726.2;741.8;726.2;710.6;695.0;679.4;663.8;648.2;632.6;617.0;601.4;585.8;570.2;554.6;539.0;523.4;507.8;492.2;476.6;461.0;445.4;429.8;414.2;398.6;383.0;367.4;351.8;336.2;320.6;305.0;289.4;273.8;258.2;258.2" keyTimes="0.0000;0.5358;0.5416;0.5474;0.5532;0.5590;0.5648;0.5706;0.5765;0.5823;0.5881;0.5939;0.5997;0.6055;0.6113;0.6171;0.6229;0.6287;0.6345;0.6403;0.6461;0.6519;0.6577;0.6635;0.6694;0.6752;0.6810;0.6868;0.6926;0.6984;0.7042;0.7100;0.8726;0.8752;0.8777;0.8803;0.8829;0.8855;0.8881;0.8906;0.8932;0.8958;0.8984;0.9010;0.9035;0.9061;0.9087;0.9113;0.9139;0.9165;0.9190;0.9216;0.9242;0.9268;0.9294;0.9319;0.9345;0.9371;0.9397;0.9423;0.9448;0.9474;0.9500;1.0000" dur="10s" repeatCount="indefinite"/><animate attributeName="opacity" calcMode="discrete" values="0;1;0;0" keyTimes="0.0000;0.5300;0.9500;1.0000" dur="10s" repeatCount="indefinite"/><animate attributeName="fill-opacity" values="1;0;1" dur="0.9s" repeatCount="indefinite"/></rect>
<path d="M0,175.0 L20,177.0 L40,178.9 L60,180.5 L80,181.8 L100,182.6 L120,183.0 L140,182.9 L160,182.2 L180,181.2 L200,179.7 L220,177.9 L240,176.0 L260,174.0 L280,172.1 L300,170.3 L320,168.8 L340,167.8 L360,167.1 L380,167.0 L400,167.4 L420,168.2 L440,169.5 L460,171.1 L480,173.0 L500,175.0 L520,177.0 L540,178.9 L560,180.5 L580,181.8 L600,182.6 L620,183.0 L640,182.9 L660,182.2 L680,181.2 L700,179.7 L720,177.9 L740,176.0 L760,174.0 L780,172.1 L800,170.3 L820,168.8 L840,167.8 L860,167.1 L880,167.0 L900,167.4 L920,168.2 L940,169.5 L960,171.1 L980,173.0 L1000,175.0 L1020,177.0 L1040,178.9 L1060,180.5 L1080,181.8 L1100,182.6 L1120,183.0 L1140,182.9 L1160,182.2 L1180,181.2 L1200,179.7 L1220,177.9 L1240,176.0 L1260,174.0 L1280,172.1 L1300,170.3 L1320,168.8 L1340,167.8 L1360,167.1 L1380,167.0 L1400,167.4 L1420,168.2 L1440,169.5 L1460,171.1 L1480,173.0 L1500,175.0 L1520,177.0 L1540,178.9 L1560,180.5 L1580,181.8 L1600,182.6 L1620,183.0 L1640,182.9 L1660,182.2 L1680,181.2 L1700,179.7 L1720,177.9 L1740,176.0 L1760,174.0 L1780,172.1 L1800,170.3 L1820,168.8 L1840,167.8 L1860,167.1 L1880,167.0 L1900,167.4 L1920,168.2 L1940,169.5 L1960,171.1 L1980,173.0 L2000,175.0 L2000,220 L0,220 Z" fill="#0e75b6" fill-opacity="0.4"><animateTransform attributeName="transform" type="translate" from="0 0" to="-500 0" dur="6s" repeatCount="indefinite"/></path><path d="M0,194.5 L20,192.0 L40,189.4 L60,186.6 L80,184.0 L100,181.5 L120,179.5 L140,178.0 L160,177.2 L180,177.0 L200,177.5 L220,178.7 L240,180.5 L260,182.7 L280,185.3 L300,188.0 L320,190.7 L340,193.3 L360,195.5 L380,197.3 L400,198.5 L420,199.0 L440,198.8 L460,198.0 L480,196.5 L500,194.5 L520,192.0 L540,189.4 L560,186.6 L580,184.0 L600,181.5 L620,179.5 L640,178.0 L660,177.2 L680,177.0 L700,177.5 L720,178.7 L740,180.5 L760,182.7 L780,185.3 L800,188.0 L820,190.7 L840,193.3 L860,195.5 L880,197.3 L900,198.5 L920,199.0 L940,198.8 L960,198.0 L980,196.5 L1000,194.5 L1020,192.0 L1040,189.4 L1060,186.6 L1080,184.0 L1100,181.5 L1120,179.5 L1140,178.0 L1160,177.2 L1180,177.0 L1200,177.5 L1220,178.7 L1240,180.5 L1260,182.7 L1280,185.3 L1300,188.0 L1320,190.7 L1340,193.3 L1360,195.5 L1380,197.3 L1400,198.5 L1420,199.0 L1440,198.8 L1460,198.0 L1480,196.5 L1500,194.5 L1520,192.0 L1540,189.4 L1560,186.6 L1580,184.0 L1600,181.5 L1620,179.5 L1640,178.0 L1660,177.2 L1680,177.0 L1700,177.5 L1720,178.7 L1740,180.5 L1760,182.7 L1780,185.3 L1800,188.0 L1820,190.7 L1840,193.3 L1860,195.5 L1880,197.3 L1900,198.5 L1920,199.0 L1940,198.8 L1960,198.0 L1980,196.5 L2000,194.5 L2000,220 L0,220 Z" fill="#38bdf8" fill-opacity="0.25"><animateTransform attributeName="transform" type="translate" from="0 0" to="-500 0" dur="9s" repeatCount="indefinite"/></path><path d="M0,206.2 L20,207.6 L40,208.6 L60,209.0 L80,208.8 L100,208.1 L120,206.9 L140,205.3 L160,203.3 L180,201.1 L200,198.9 L220,196.7 L240,194.7 L260,193.1 L280,191.9 L300,191.2 L320,191.0 L340,191.4 L360,192.4 L380,193.8 L400,195.7 L420,197.8 L440,200.0 L460,202.2 L480,204.3 L500,206.2 L520,207.6 L540,208.6 L560,209.0 L580,208.8 L600,208.1 L620,206.9 L640,205.3 L660,203.3 L680,201.1 L700,198.9 L720,196.7 L740,194.7 L760,193.1 L780,191.9 L800,191.2 L820,191.0 L840,191.4 L860,192.4 L880,193.8 L900,195.7 L920,197.8 L940,200.0 L960,202.2 L980,204.3 L1000,206.2 L1020,207.6 L1040,208.6 L1060,209.0 L1080,208.8 L1100,208.1 L1120,206.9 L1140,205.3 L1160,203.3 L1180,201.1 L1200,198.9 L1220,196.7 L1240,194.7 L1260,193.1 L1280,191.9 L1300,191.2 L1320,191.0 L1340,191.4 L1360,192.4 L1380,193.8 L1400,195.7 L1420,197.8 L1440,200.0 L1460,202.2 L1480,204.3 L1500,206.2 L1520,207.6 L1540,208.6 L1560,209.0 L1580,208.8 L1600,208.1 L1620,206.9 L1640,205.3 L1660,203.3 L1680,201.1 L1700,198.9 L1720,196.7 L1740,194.7 L1760,193.1 L1780,191.9 L1800,191.2 L1820,191.0 L1840,191.4 L1860,192.4 L1880,193.8 L1900,195.7 L1920,197.8 L1940,200.0 L1960,202.2 L1980,204.3 L2000,206.2 L2000,220 L0,220 Z" fill="#0b1220" fill-opacity="0.9"><animateTransform attributeName="transform" type="translate" from="0 0" to="-500 0" dur="12s" repeatCount="indefinite"/></path>
</svg>